<svg width="168" height="48" viewBox="0 0 168 48" fill="none" xmlns="http://www.w3.org/2000/svg">
    <g fill="#343434">
        <path d="M13 15c-2.2-1.8-5-1.5-7 .5s-1 4 1.5 5.5c3 2 7.5 4 7.5 8.5s-3.5 8-9 8c-4 0-7.5-2-8.5-5l3.8-1.5c.5 1.5 2 2.5 4.5 2.5 2.2 0 4-1.2 4-3.5 0-2.5-2.2-4-6-5.5-3.5-1.8-6-4.5-6-8.5 0-4 3-8 8-8 3.5 0 6.5 1.8 8 5l-3.3 2z"/>
        <path d="M19 17.5h4.2v3c1-2.2 3.2-3.5 5.5-3.5 4 0 7 3 7 7.5V39h-4.2V25.5c0-2.8-1-4.2-3-4.2s-3.8 1.5-3.8 4.2V39H19V17.5z"/>
        <path d="M48 17.5h4.2V39h-4.2v-2.5c-1 1.8-3 3-5.5 3-4 0-7.5-3.5-7.5-8.5s3.5-8.5 7.5-8.5c2.2 0 4 1.2 5.5 3V17.5zm-6 17.8c2.2 0 3.8-1.8 3.8-4.8s-1.5-4.8-3.8-4.8-3.8 1.8-3.8 4.8 1.5 4.8 3.8 4.8z"/>
        <path d="M57 17.5h4.2v2.5c1-1.8 3-3 5.5-3 4.2 0 7.8 4 7.8 9.5s-3.5 9.5-7.8 9.5c-2.2 0-4.2-1.2-5.5-3V39H57V17.5zm6.5 14.5c2.2 0 3.8-2 3.8-5.8s-1.5-5.8-3.8-5.8-3.8 2-3.8 5.8 1.5 5.8 3.8 5.8z"/>
        <path d="M78 17.5h3.8v3c1-2.2 2.2-3.5 4-3.5 2.2 0 3.5 1.2 4.2 3.2.8-1.8 2.2-3.2 4.5-3.2 3.5 0 6.5 3 6.5 7.5V39h-3.8V25.5c0-2.8-0.8-4.2-2.2-4.2s-2.8 1.5-2.8 4.2V39h-3.8V25.5c0-2.8-0.8-4.2-2.2-4.2s-2.8 1.5-2.8 4.2V39h-3.8V17.5z"/>
        <rect x="105" y="17.5" width="4" height="21.5"/>
        <rect x="105" y="10.5" width="4" height="4.5"/>
        <path d="M113 17.5h4v3.2c1-2.5 2.2-4 4.5-4h1.2v4.2h-1.2c-2.5 0-4.5 2-4.5 5.5V39h-4V17.5z"/>
        <path d="M126 17.5h4v3.2c1-2.5 2.2-4 4.5-4h1.2v4.2h-1.2c-2.5 0-4.5 2-4.5 5.5V39h-4V17.5z"/>
        <path d="M144 17.5c4 0 7.5 4 7.5 9s-3.5 9-7.5 9-7.5-4-7.5-9 3.5-9 7.5-9zm0 13.2c2.2 0 3.5-2.2 3.5-5.2s-1.2-5.2-3.5-5.2-3.5 2.2-3.5 5.2 1.2 5.2 3.5 5.2z"/>
        <path d="M156 17.5h4v3.2c1-2.5 2.2-4 4.5-4h1.2v4.2h-1.2c-2.5 0-4.5 2-4.5 5.5V39h-4V17.5z"/>
    </g>
</svg>