<?xml version="1.0" encoding="UTF-8"?>
<svg version="1.1" xmlns="http://www.w3.org/2000/svg" width="927" height="820">
<path d="M0 0 C305.91 0 611.82 0 927 0 C927 270.6 927 541.2 927 820 C621.09 820 315.18 820 0 820 C0 549.4 0 278.8 0 0 Z " fill="#010101" transform="translate(0,0)"/>
<path d="M0 0 C23.1210145 17.75610844 39.85370987 41.83870161 44.125 71.0625 C45.30492255 92.05698401 44.53244463 111.87972185 35.125 131.0625 C34.62226562 132.10664063 34.11953125 133.15078125 33.6015625 134.2265625 C20.90034666 159.21158333 -0.83596881 177.92192069 -27.45117188 186.77490234 C-55.61164567 195.69533523 -85.5205128 192.71091008 -111.62890625 179.37890625 C-117.14094141 176.44036693 -122.10550361 173.10047853 -126.875 169.0625 C-127.36548828 168.64742187 -127.85597656 168.23234375 -128.36132812 167.8046875 C-149.15093914 150.00732337 -162.59646859 126.30647527 -165.875 99.0625 C-167.99785554 67.89648595 -160.86661105 41.01053321 -140.26953125 16.984375 C-123.34556888 -2.26207018 -102.49772018 -12.51827829 -77.875 -17.9375 C-77.10414063 -18.1334375 -76.33328125 -18.329375 -75.5390625 -18.53125 C-49.47631602 -22.50562776 -21.39552767 -15.085049 0 0 Z " fill="#030205" transform="translate(536.875,289.9375)"/>
<path d="M0 0 C23.1210145 17.75610844 39.85370987 41.83870161 44.125 71.0625 C45.30492255 92.05698401 44.53244463 111.87972185 35.125 131.0625 C34.62226562 132.10664063 34.11953125 133.15078125 33.6015625 134.2265625 C20.90034666 159.21158333 -0.83596881 177.92192069 -27.45117188 186.77490234 C-55.61164567 195.69533523 -85.5205128 192.71091008 -111.62890625 179.37890625 C-117.14094141 176.44036693 -122.10550361 173.10047853 -126.875 169.0625 C-127.36548828 168.64742187 -127.85597656 168.23234375 -128.36132812 167.8046875 C-149.15093914 150.00732337 -162.59646859 126.30647527 -165.875 99.0625 C-167.99785554 67.89648595 -160.86661105 41.01053321 -140.26953125 16.984375 C-123.34556888 -2.26207018 -102.49772018 -12.51827829 -77.875 -17.9375 C-77.10414063 -18.1334375 -76.33328125 -18.329375 -75.5390625 -18.53125 C-49.47631602 -22.50562776 -21.39552767 -15.085049 0 0 Z M-130.20166016 23.18457031 C-134.80244828 28.34787091 -138.45067057 34.07430549 -141.875 40.0625 C-142.53113281 41.20460938 -143.18726563 42.34671875 -143.86328125 43.5234375 C-154.55371658 63.53080468 -157.78712009 86.38716447 -152.1875 108.625 C-151.46872839 110.78882811 -150.70166964 112.93755246 -149.875 115.0625 C-149.51277344 116.073125 -149.15054687 117.08375 -148.77734375 118.125 C-139.41660048 142.49466384 -122.67708521 160.96487413 -99.03857422 172.10791016 C-87.48767537 177.2042783 -76.7656552 179.24931243 -64.17480469 179.24780273 C-62.1449655 179.2499786 -60.11568 179.26813291 -58.0859375 179.28710938 C-51.06076463 179.2975428 -44.62482316 179.06081429 -37.875 177.0625 C-36.09416016 176.58103516 -36.09416016 176.58103516 -34.27734375 176.08984375 C-10.42465032 168.58713635 9.64951275 153.27990424 21.52734375 131.04101562 C25.27619549 123.64941173 28.16211404 116.13099439 30.125 108.0625 C30.34929687 107.14855469 30.57359375 106.23460937 30.8046875 105.29296875 C34.81444357 85.65614965 32.18112851 65.27320966 24.125 47.0625 C23.75632812 46.20269531 23.38765625 45.34289062 23.0078125 44.45703125 C14.45188862 25.89952739 -0.66331146 13.22347397 -18 3.3125 C-18.65693848 2.93536865 -19.31387695 2.5582373 -19.99072266 2.16967773 C-25.78889826 -1.06834914 -31.79551306 -3.66509539 -38.3125 -5.0625 C-38.97121094 -5.20945312 -39.62992187 -5.35640625 -40.30859375 -5.5078125 C-74.45975559 -11.22566304 -106.15610279 -2.05764526 -130.20166016 23.18457031 Z " fill="#4846A9" transform="translate(536.875,289.9375)"/>
<path d="M0 0 C7.04884819 4.20697102 11.32897182 10.40122272 13.80078125 18.1484375 C15.75289449 28.31037276 14.425932 37.54673264 9.00390625 46.28125 C4.18227623 52.69611429 -2.63678353 56.72232528 -10.546875 57.87109375 C-18.21257622 58.14595953 -23.96526208 57.57237353 -29.78125 52.32421875 C-30.27625 51.82921875 -30.27625 51.82921875 -30.78125 51.32421875 C-31.11125 60.23421875 -31.44125 69.14421875 -31.78125 78.32421875 C-37.72125 78.32421875 -43.66125 78.32421875 -49.78125 78.32421875 C-49.78125 51.92421875 -49.78125 25.52421875 -49.78125 -1.67578125 C-44.17125 -1.67578125 -38.56125 -1.67578125 -32.78125 -1.67578125 C-32.45125 0.30421875 -32.12125 2.28421875 -31.78125 4.32421875 C-31.23855469 3.90269531 -30.69585937 3.48117187 -30.13671875 3.046875 C-29.42128906 2.49902344 -28.70585937 1.95117188 -27.96875 1.38671875 C-27.26105469 0.84144531 -26.55335938 0.29617188 -25.82421875 -0.265625 C-18.6424451 -5.22283396 -7.49821076 -3.46913972 0 0 Z " fill="#283076" transform="translate(435.78125,536.67578125)"/>
<path d="M0 0 C-0.33 1.65 -0.66 3.3 -1 5 C-2.19625 5.2475 -3.3925 5.495 -4.625 5.75 C-11.87454252 7.60067547 -16.83000995 11.93243021 -21 18 C-25.55408564 25.73070093 -26.11246263 34.23058736 -25 43 C-23.86467308 45.91126738 -23.86467308 45.91126738 -22 48 C-17.171658 48.79153148 -15.09751445 48.60255695 -10.8125 46.25 C-6.00806266 41.65616814 -3.22139858 34.25106331 -2.77734375 27.73046875 C-2.74086265 24.97661529 -2.74086265 24.97661529 -4.4375 23.25 C-4.953125 22.8375 -5.46875 22.425 -6 22 C-7.56935594 18.86128812 -7.35201103 16.46144178 -7 13 C-4.9375 10.0625 -4.9375 10.0625 -2 8 C2.30274909 7.30848675 4.20945312 7.48442595 7.875 9.875 C10.5724228 12.5724228 10.98570111 13.28505542 11.0625 17.125 C11.041875 18.07375 11.02125 19.0225 11 20 C17.40240529 19.64614403 17.40240529 19.64614403 23 17 C23.76292414 14.23992309 24.28933627 11.74907331 24.6875 8.9375 C25.91611168 1.08388832 25.91611168 1.08388832 27 0 C28.64230364 -0.1245486 30.29052276 -0.17568524 31.9375 -0.1875 C32.83339844 -0.20167969 33.72929688 -0.21585938 34.65234375 -0.23046875 C37 0 37 0 39 2 C39.046875 4.13671875 39.046875 4.13671875 38.75 6.6875 C38.66234375 7.51636719 38.5746875 8.34523438 38.484375 9.19921875 C37.90459074 12.55168093 36.97953008 15.74426682 36 19 C36.49628906 18.13117187 36.99257813 17.26234375 37.50390625 16.3671875 C45.44869861 2.7756507 45.44869861 2.7756507 53 -1 C57.74275933 -1.46650092 59.92860438 -1.66962226 64 0.875 C66.82828172 5.29419018 66.86907852 8.88918047 66 14 C64.45561631 18.20981748 62.11131407 22.00307602 58 24 C54.25 24.1875 54.25 24.1875 51 24 C49.54393481 19.47907032 50.72967159 16.48351204 52 12 C46.75820657 14.10425952 44.25670597 16.82398265 41.4375 21.5625 C41.05255371 22.18874268 40.66760742 22.81498535 40.27099609 23.46020508 C33.73229172 34.23072803 29.63612591 44.45636802 28 57 C26.33438601 58.66561399 24.34037295 58.17115945 22.0625 58.1875 C21.16660156 58.20167969 20.27070312 58.21585938 19.34765625 58.23046875 C17 58 17 58 15 56 C14.21656894 46.05645191 18.34393755 35.45793457 21 26 C20.41734375 26.32742188 19.8346875 26.65484375 19.234375 26.9921875 C16.12444636 28.39491755 13.36696519 28.12949866 10 28 C9.99742187 28.60585938 9.99484375 29.21171875 9.9921875 29.8359375 C9.56998837 38.98358535 5.84970536 45.59657847 -0.75 51.875 C-7.81387872 57.53413011 -15.12808135 59.77088713 -24.16015625 59.45703125 C-29.55374585 58.58901202 -33.20323405 55.91655035 -36.875 52 C-41.23923913 44.24135265 -41.35152228 34.58872726 -39.27734375 26.01171875 C-38.33403945 23.55607233 -37.26808031 21.30333276 -36 19 C-35.45666016 17.95972656 -35.45666016 17.95972656 -34.90234375 16.8984375 C-30.85939092 9.79928643 -24.8995002 3.03143522 -17.35546875 -0.38671875 C-12.20657682 -1.72730919 -4.86313407 -2.43156703 0 0 Z " fill="#9938B4" transform="translate(710,535)"/>
<path d="M0 0 C4.6 2.2 4.6 2.2 6 5 C6.52293617 12.05963823 4.89701532 18.22494528 3 25 C3.54527344 24.01 4.09054687 23.02 4.65234375 22 C9.72029621 13.04007778 15.02684699 4.1227601 25 0 C30.36921733 -0.42612836 33.61696956 -0.45329671 38 3 C41.58295525 10.1659105 38.03231719 19.83161762 36 27 C35.4475181 28.96320281 34.89900311 30.92728951 34.35839844 32.89379883 C33.83777663 34.78326483 33.30398482 36.66908727 32.76953125 38.5546875 C32.03662281 41.83603392 31.85159071 44.65311471 32 48 C34.58977277 47.53754058 35.96503859 47.02754535 38.0625 45.375 C39.0215625 44.694375 39.0215625 44.694375 40 44 C41.485 44.495 41.485 44.495 43 45 C43.375 48.1875 43.375 48.1875 43 52 C40.94065155 54.15741267 39.45092505 55.46536115 37 57 C35.576875 57.8971875 35.576875 57.8971875 34.125 58.8125 C29.92627822 60.40801428 27.4901037 60.5701719 23 60 C20 58.1875 20 58.1875 18 55 C16.946896 46.94198915 18.81700299 39.4076619 20.9375 31.6875 C21.49025008 29.6085954 22.04109296 27.52918258 22.58984375 25.44921875 C22.84233887 24.49837402 23.09483398 23.5475293 23.35498047 22.56787109 C24.06766467 19.73062189 24.60583628 16.89884961 25 14 C19.79385904 14.93710537 17.03195991 16.23861583 13.66796875 20.55859375 C5.73492337 32.17019414 -1.30360013 44.0686007 -4 58 C-5.58894072 59.58894072 -7.24801424 59.16998411 -9.4375 59.1875 C-10.24058594 59.20167969 -11.04367187 59.21585938 -11.87109375 59.23046875 C-14 59 -14 59 -16 57 C-16.62742481 50.02593187 -14.93171029 43.88913469 -13.125 37.1875 C-11.08600542 29.49492955 -9.30114993 21.85440803 -8 14 C-16.15122354 16.27476006 -19.81106098 20.65671254 -24 27.625 C-24.43642822 28.34139648 -24.87285645 29.05779297 -25.32250977 29.79589844 C-30.42872619 38.25822833 -34.29033879 45.90067411 -36.421875 55.62890625 C-37 58 -37 58 -38 59 C-39.66429051 59.09823937 -41.33281931 59.12973631 -43 59.125 C-44.36125 59.12886719 -44.36125 59.12886719 -45.75 59.1328125 C-48 59 -48 59 -49 58 C-49.34515017 51.84942405 -48.41406975 46.61995625 -46.875 40.6875 C-46.41698634 38.85343357 -45.96138595 37.01876331 -45.5078125 35.18359375 C-45.26450195 34.20116699 -45.02119141 33.21874023 -44.77050781 32.20654297 C-43.04853989 25.04040651 -41.52136153 17.82808644 -39.96826172 10.6237793 C-39.7260791 9.51558838 -39.48389648 8.40739746 -39.234375 7.265625 C-39.02006836 6.27336914 -38.80576172 5.28111328 -38.58496094 4.25878906 C-38 2 -38 2 -37 1 C-35.33570949 0.90176063 -33.66718069 0.87026369 -32 0.875 C-30.63875 0.87113281 -30.63875 0.87113281 -29.25 0.8671875 C-27 1 -27 1 -26 2 C-26.04453554 9.58217531 -27.0395208 16.04930971 -30 23 C-30 23.99 -30 24.98 -30 26 C-29.56429688 25.14277344 -29.12859375 24.28554688 -28.6796875 23.40234375 C-23.0399262 12.57449035 -14.59572001 -2.5757153 0 0 Z " fill="#4E3B9A" transform="translate(504,534)"/>
<path d="M0 0 C3.85964567 3.48743665 7.64386453 7.81425729 8.24050903 13.15142822 C8.2338472 14.31058746 8.2338472 14.31058746 8.22705078 15.49316406 C8.22689972 16.37377502 8.22674866 17.25438599 8.22659302 18.16168213 C8.21627045 19.10348328 8.20594788 20.04528442 8.1953125 21.015625 C8.1924826 21.98659119 8.18965271 22.95755737 8.18673706 23.95794678 C8.17555292 27.05542385 8.15045142 30.1526105 8.125 33.25 C8.11496792 35.35155832 8.10584247 37.45312118 8.09765625 39.5546875 C8.07561934 44.70323669 8.04110145 49.85156913 8 55 C2.72 55 -2.56 55 -8 55 C-8 53.02 -8 51.04 -8 49 C-8.66 49 -9.32 49 -10 49 C-10.33 49.99 -10.66 50.98 -11 52 C-17.62019927 56.37182971 -23.20592839 56.64161723 -31 56 C-31.75925781 55.95230469 -32.51851563 55.90460937 -33.30078125 55.85546875 C-37.63951811 55.22361387 -40.05101538 53.40136347 -43 50.1875 C-46.46639651 45.26617101 -46.90944979 40.95327308 -46.54296875 35.02734375 C-45.73254871 30.50881476 -44.43531239 27.99871586 -41 25 C-34.19291931 20.74287049 -27.78218094 20.49263507 -19.9375 20.75 C-18.35291992 20.77707031 -18.35291992 20.77707031 -16.73632812 20.8046875 C-14.1565745 20.85137987 -11.57879183 20.91684412 -9 21 C-9.99843687 15.92709437 -9.99843687 15.92709437 -13.23046875 12.08984375 C-18.92339868 9.84960757 -25.78540403 9.86456931 -31.5546875 11.90234375 C-33.41146156 12.85793626 -35.21232775 13.92065072 -37 15 C-37.66 15 -38.32 15 -39 15 C-42.44419134 5.58997722 -42.44419134 5.58997722 -42 1 C-30.56145915 -5.45251022 -11.48047681 -7.61664129 0 0 Z " fill="#172A65" transform="translate(364,538)"/>
<path d="M0 0 C0.77472656 0.00451172 1.54945313 0.00902344 2.34765625 0.01367188 C4.23180524 0.02530242 6.11591365 0.04323094 8 0.0625 C10.08367504 4.89953443 12.16488369 9.73762 14.24389648 14.57666016 C14.9502644 16.21984911 15.65728433 17.86275795 16.36499023 19.50537109 C17.38700637 21.87783139 18.40660834 24.25131714 19.42578125 26.625 C19.8947155 27.71143799 19.8947155 27.71143799 20.37312317 28.81982422 C21.26267202 30.89521432 22.13571073 32.97647402 23 35.0625 C23.30505463 35.78808105 23.61010925 36.51366211 23.92440796 37.26123047 C26.11715112 42.71104663 26.11715112 42.71104663 25 46.0625 C24.09378906 45.72476563 23.18757813 45.38703125 22.25390625 45.0390625 C21.03574219 44.59304688 19.81757813 44.14703125 18.5625 43.6875 C17.36753906 43.24664062 16.17257812 42.80578125 14.94140625 42.3515625 C5.29697852 39.09816515 -3.89105538 38.72668935 -13.97265625 38.6484375 C-15.50680041 38.62969669 -17.04093458 38.61012118 -18.57505798 38.5897522 C-22.58456493 38.53873222 -26.59410518 38.49894664 -30.60375977 38.46160889 C-34.7066247 38.42137873 -38.8093547 38.37037378 -42.91210938 38.3203125 C-50.94131358 38.22391074 -58.97058537 38.13939332 -67 38.0625 C-61.68851651 23.68052029 -45.51262083 12.96142109 -32.1875 6.625 C-21.34353347 1.96630564 -11.8013753 -0.13294444 0 0 Z " fill="#1452A0" transform="translate(473,291.9375)"/>
<path d="M0 0 C0.69480469 0.2784375 1.38960938 0.556875 2.10546875 0.84375 C3.06066406 1.2253125 4.01585937 1.606875 5 2 C6.00675781 2.4021875 7.01351563 2.804375 8.05078125 3.21875 C9.12714844 3.6415625 10.20351563 4.064375 11.3125 4.5 C12.38113281 4.9228125 13.44976562 5.345625 14.55078125 5.78125 C23.59029089 8.97527832 31.93958363 9.33834798 41.4375 9.4140625 C42.92823325 9.43279923 44.41895618 9.45237447 45.90966797 9.4727478 C49.8090401 9.52381073 53.70844652 9.56357365 57.60797119 9.60089111 C61.59680482 9.64109395 65.58549901 9.69211154 69.57421875 9.7421875 C77.38271642 9.83864029 85.19128225 9.92314179 93 10 C87.56445179 24.59491433 71.41207162 34.34121912 58.0546875 40.71875 C48.0654946 44.9085905 38.42100003 47.18939693 27.625 47.0625 C26.88894531 47.05798828 26.15289062 47.05347656 25.39453125 47.04882812 C23.59631842 47.03715142 21.79814803 47.01922011 20 47 C19.54109375 45.9378125 19.0821875 44.875625 18.609375 43.78125 C14.95080518 35.19912116 14.95080518 35.19912116 10.875 26.8125 C8.62221071 22.45133099 6.96749446 17.86538003 5.23828125 13.27734375 C3.55625655 8.82554967 1.78280289 4.41218816 0 0 Z " fill="#7A33AD" transform="translate(452,414)"/>
<path d="M0 0 C5.73496498 6.48870323 7.64484491 18.4318834 8 27 C8.0515625 28.16917969 8.103125 29.33835937 8.15625 30.54296875 C8.61595114 46.15945505 4.9881678 61.0236644 -2 75 C-20.48 75 -38.96 75 -58 75 C-55.22909571 72.22909571 -53.52152906 70.60996903 -50.4375 68.625 C-40.98783619 61.61226248 -34.59282465 50.64779422 -28.55029297 40.74365234 C-25.68857218 36.05640963 -22.63249936 31.60374145 -19.34765625 27.19921875 C-15.41234954 21.83646302 -11.63706737 16.36095648 -7.83496094 10.90332031 C-7.25391602 10.07026367 -6.67287109 9.23720703 -6.07421875 8.37890625 C-5.55432373 7.6319751 -5.03442871 6.88504395 -4.4987793 6.11547852 C-3.03447721 4.04866346 -1.52951322 2.01888893 0 0 Z " fill="#7136AA" transform="translate(553,342)"/>
<path d="M0 0 C5.61940388 2.40988081 8.7299047 7.09269549 11.44140625 12.421875 C12.29550812 15.25541987 12.56382703 17.77817638 12.55493164 20.73144531 C12.55485611 21.57201477 12.55478058 22.41258423 12.55470276 23.27862549 C12.54954147 24.17667908 12.54438019 25.07473267 12.5390625 26 C12.53764755 26.9265741 12.5362326 27.85314819 12.53477478 28.80780029 C12.52918449 31.76252492 12.51663375 34.71717333 12.50390625 37.671875 C12.49889 39.67708224 12.49432731 41.68229067 12.49023438 43.6875 C12.47921824 48.59898763 12.46196025 53.5104184 12.44140625 58.421875 C6.83140625 58.421875 1.22140625 58.421875 -4.55859375 58.421875 C-4.584375 55.88113281 -4.61015625 53.34039063 -4.63671875 50.72265625 C-4.67516563 48.2535509 -4.72031714 45.78465252 -4.76611328 43.31567383 C-4.79428461 41.6038608 -4.81551827 39.89191863 -4.82958984 38.17993164 C-4.8510734 35.71433581 -4.89774791 33.25028639 -4.94921875 30.78515625 C-4.95044739 30.02350662 -4.95167603 29.26185699 -4.95294189 28.47712708 C-5.08864943 23.51940083 -6.00259529 20.89758477 -9.55859375 17.421875 C-12.06509527 16.16862424 -14.00964292 16.07482313 -16.80859375 15.921875 C-17.741875 15.8496875 -18.67515625 15.7775 -19.63671875 15.703125 C-24.06105282 16.79146386 -26.18957555 19.62246483 -28.55859375 23.421875 C-29.3611329 26.29814718 -29.39927691 29.00656163 -29.36328125 31.98046875 C-29.38384079 33.16419823 -29.38384079 33.16419823 -29.40481567 34.37184143 C-29.44191588 36.86827653 -29.43841497 39.36270488 -29.43359375 41.859375 C-29.4517348 43.56187978 -29.47254191 45.26435835 -29.49609375 46.96679688 C-29.55273269 51.11964459 -29.55433922 55.26733116 -29.55859375 59.421875 C-35.16859375 59.421875 -40.77859375 59.421875 -46.55859375 59.421875 C-46.55859375 39.951875 -46.55859375 20.481875 -46.55859375 0.421875 C-40.94859375 0.421875 -35.33859375 0.421875 -29.55859375 0.421875 C-29.22859375 2.401875 -28.89859375 4.381875 -28.55859375 6.421875 C-27.93210937 6.00035156 -27.305625 5.57882812 -26.66015625 5.14453125 C-25.84289062 4.59667969 -25.025625 4.04882812 -24.18359375 3.484375 C-23.37148438 2.93910156 -22.559375 2.39382813 -21.72265625 1.83203125 C-15.66861416 -2.1129312 -6.92135309 -1.56390879 0 0 Z " fill="#072153" transform="translate(295.55859375,534.578125)"/>
<path d="M0 0 C0.33 0 0.66 0 1 0 C1.12117188 0.90621094 1.24234375 1.81242187 1.3671875 2.74609375 C1.88386986 6.50197708 2.43252497 10.25146777 3 14 C3.12117188 14.81726563 3.24234375 15.63453125 3.3671875 16.4765625 C4.1628409 20.81206165 5.63129022 24.50909479 7.53515625 28.48046875 C11.46384197 36.88149491 15.00772272 45.43410507 18.55102539 54.00341797 C19.69187536 56.76057419 20.83886173 59.51512309 21.98632812 62.26953125 C22.72432728 64.04932623 23.46197003 65.82926904 24.19921875 67.609375 C24.53676682 68.41896667 24.87431488 69.22855835 25.22209167 70.06268311 C27.38345202 75.30646136 29.27659978 80.59658103 31 86 C12.25048544 85.54449636 -4.96896913 74.15800594 -17.77734375 61.1875 C-26.29450207 51.98246546 -26.29450207 51.98246546 -29 47 C-28.72765776 41.93893664 -26.91339043 38.86178498 -24.0625 34.74609375 C-23.66353516 34.16392593 -23.26457031 33.58175812 -22.85351562 32.98194885 C-21.57878267 31.12683016 -20.28979306 29.28217026 -19 27.4375 C-18.1643997 26.22657671 -17.32975617 25.01499261 -16.49609375 23.80273438 C-14.83926588 21.39706988 -13.17489977 18.99691917 -11.50390625 16.60107422 C-9.79027252 14.14272187 -8.09118128 11.67515802 -6.40234375 9.19970703 C-5.98791016 8.59425552 -5.57347656 7.98880402 -5.14648438 7.36500549 C-4.00069391 5.69003602 -2.85768695 4.01316344 -1.71484375 2.33618164 C-1.14894531 1.5652417 -0.58304687 0.79430176 0 0 Z " fill="#493FA1" transform="translate(432,374)"/>
<path d="M0 0 C17.82 0 35.64 0 54 0 C54 0.66 54 1.32 54 2 C53.05125 2.45375 52.1025 2.9075 51.125 3.375 C41.60461885 8.85672141 35.074825 18.17513198 29.1875 27.1875 C28.11033092 28.80158157 27.03313396 30.4156448 25.95500183 32.02908325 C24.79737718 33.76485862 23.64481941 35.50391164 22.49316406 37.24365234 C18.35733939 43.48429044 14.17111252 49.69107645 9.98110962 55.89541626 C8.57624067 57.97961497 7.17785117 60.06805303 5.7800293 62.15698242 C4.91739481 63.43814982 4.05453186 64.71916342 3.19140625 66 C2.59880508 66.89039726 2.59880508 66.89039726 1.99423218 67.79878235 C-0.77251648 71.88625824 -0.77251648 71.88625824 -3 73 C-3.63036226 71.33535403 -4.25397593 69.66815224 -4.875 68 C-5.22304688 67.071875 -5.57109375 66.14375 -5.9296875 65.1875 C-11.5263516 48.5200624 -11.89287668 26.37305091 -5 10 C-3.35 6.7 -1.7 3.4 0 0 Z " fill="#204DA0" transform="translate(401,337)"/>
<path d="M0 0 C19.06421628 1.14385298 36.14339843 12.57868679 49 26 C52.61528363 30.15728788 55.94448842 34.41673263 59 39 C58.63726465 41.99796673 57.48075892 44.08189436 55.8046875 46.5546875 C55.34304199 47.24183838 54.88139648 47.92898926 54.40576172 48.63696289 C53.90061035 49.37551514 53.39545898 50.11406738 52.875 50.875 C52.35309082 51.64642334 51.83118164 52.41784668 51.29345703 53.21264648 C50.15259344 54.89689769 49.00907563 56.57935323 47.86328125 58.26025391 C45.87716296 61.1806181 43.90667589 64.1111573 41.9375 67.04296875 C40.58379263 69.04978906 39.2296331 71.05630445 37.875 73.0625 C37.2238623 74.0323584 36.57272461 75.0022168 35.90185547 76.00146484 C34.98750732 77.34845459 34.98750732 77.34845459 34.0546875 78.72265625 C33.51312012 79.52453369 32.97155273 80.32641113 32.41357422 81.15258789 C31 83 31 83 29 84 C28.92523437 83.1028125 28.85046875 82.205625 28.7734375 81.28125 C27.79660757 72.01094243 25.52292913 63.91990471 21.9609375 55.32226562 C20.88280612 52.71678146 19.83157253 50.10118885 18.78125 47.484375 C14.276043 36.282267 14.276043 36.282267 9.375 25.25 C7.10860427 20.39116564 5.14037748 15.4285122 3.1875 10.4375 C2.87280762 9.63795898 2.55811523 8.83841797 2.23388672 8.01464844 C0 2.24553354 0 2.24553354 0 0 Z " fill="#3F42A0" transform="translate(490,293)"/>
<path d="M0 0 C2.7109375 1.1015625 2.7109375 1.1015625 5 3 C6.1287609 8.64380449 6.41566771 15.77053679 3.125 20.75 C-0.87459931 24.98486986 -0.87459931 24.98486986 -2.91015625 25.23046875 C-8.88888889 25.11111111 -8.88888889 25.11111111 -10 24 C-9.59841673 19.91723674 -9.15147536 15.94791553 -8 12 C-19.3993126 17.6996563 -26.337862 32.68312171 -30.26171875 44.31640625 C-31.3116144 48.13269362 -32.01268032 51.97151686 -32.60546875 55.8828125 C-33 58 -33 58 -34 59 C-35.64230364 59.1245486 -37.29052276 59.17568524 -38.9375 59.1875 C-39.83339844 59.20167969 -40.72929688 59.21585938 -41.65234375 59.23046875 C-44 59 -44 59 -46 57 C-46.125 54.375 -46.125 54.375 -46 52 C-46.93972656 52.63228516 -46.93972656 52.63228516 -47.8984375 53.27734375 C-48.71570313 53.82519531 -49.53296875 54.37304688 -50.375 54.9375 C-51.18710937 55.48277344 -51.99921875 56.02804687 -52.8359375 56.58984375 C-56.21932043 58.79453913 -58.33794264 59.23429827 -62.375 59.375 C-63.33148437 59.42398438 -64.28796875 59.47296875 -65.2734375 59.5234375 C-68 59 -68 59 -70.13989258 56.83569336 C-73.93983095 51.04276986 -72.58038649 43.92168692 -71.28271484 37.38916016 C-70.33721502 33.66641021 -69.28920651 29.99192961 -68.1875 26.3125 C-67.83107422 25.07177734 -67.47464844 23.83105469 -67.10742188 22.55273438 C-66.09082793 19.02916381 -65.04843913 15.51420311 -64 12 C-63.70432129 10.98212402 -63.40864258 9.96424805 -63.10400391 8.91552734 C-62.83894043 8.00883301 -62.57387695 7.10213867 -62.30078125 6.16796875 C-62.07173096 5.38059326 -61.84268066 4.59321777 -61.60668945 3.78198242 C-61 2 -61 2 -60 1 C-58.35769636 0.8754514 -56.70947724 0.82431476 -55.0625 0.8125 C-54.16660156 0.79832031 -53.27070312 0.78414062 -52.34765625 0.76953125 C-50 1 -50 1 -48 3 C-48.34639967 8.48368292 -49.57244961 13.41858607 -51.3125 18.625 C-51.76300245 20.02172202 -52.21219596 21.41886683 -52.66015625 22.81640625 C-52.88461426 23.51266113 -53.10907227 24.20891602 -53.34033203 24.92626953 C-54.35800926 28.12543695 -55.31089047 31.33925594 -56.25 34.5625 C-56.56453125 35.63628906 -56.8790625 36.71007812 -57.203125 37.81640625 C-58.04951589 41.19782083 -58.56414302 44.54365416 -59 48 C-55.89218884 47.08178307 -53.43096905 46.34224013 -50.875 44.3125 C-50.25625 43.879375 -49.6375 43.44625 -49 43 C-46.8828125 43.41796875 -46.8828125 43.41796875 -45 44 C-41.24165902 32.99105429 -38.47692856 21.8795214 -35.96826172 10.52392578 C-35.7260791 9.43450684 -35.48389648 8.34508789 -35.234375 7.22265625 C-35.02006836 6.24047119 -34.80576172 5.25828613 -34.58496094 4.24633789 C-34 2 -34 2 -33 1 C-31.33570949 0.90176063 -29.66718069 0.87026369 -28 0.875 C-26.63875 0.87113281 -26.63875 0.87113281 -25.25 0.8671875 C-23 1 -23 1 -22 2 C-21.68393845 7.22160015 -22.48106294 11.45348776 -24 16.4375 C-24.37125 17.67371094 -24.7425 18.90992188 -25.125 20.18359375 C-25.41375 21.11300781 -25.7025 22.04242187 -26 23 C-25.72027344 22.38253906 -25.44054687 21.76507812 -25.15234375 21.12890625 C-19.96162436 10.16330292 -13.59428973 -1.51047664 0 0 Z " fill="#693AA6" transform="translate(622,534)"/>
<path d="M0 0 C-0.66498383 4.38889325 -2.18757677 7.9811485 -4 12 C-5.41681634 11.68817931 -6.83344651 11.37551263 -8.25 11.0625 C-9.03890625 10.88847656 -9.8278125 10.71445312 -10.640625 10.53515625 C-12.08566977 10.20738947 -13.52480347 9.84960542 -14.94921875 9.44140625 C-17.52204319 8.88763642 -19.9323204 8.86784305 -22.5625 8.875 C-23.51253906 8.87242187 -24.46257812 8.86984375 -25.44140625 8.8671875 C-28.1212438 8.89229006 -28.1212438 8.89229006 -31 10 C-30.67 11.98 -30.34 13.96 -30 16 C-28.7934375 16.24234375 -27.586875 16.4846875 -26.34375 16.734375 C-24.72904512 17.07233649 -23.11446848 17.41091101 -21.5 17.75 C-20.31277344 17.98589844 -20.31277344 17.98589844 -19.1015625 18.2265625 C-12.07504564 19.72401691 -4.36496378 22.0285905 0.15234375 28.03125 C2.07119923 32.48794661 1.69854163 37.29131198 1 42 C-1.69645191 47.59264099 -6.18841056 51.71058598 -12 54 C-22.62396758 56.14673091 -34.8780949 56.3000401 -45 52 C-47.296875 50.39453125 -47.296875 50.39453125 -49 49 C-48.45660208 44.43545749 -47.20536179 41.0271824 -45 37 C-41.78883205 37.51793031 -38.95600781 38.39900244 -35.9375 39.5625 C-29.62705976 41.73668529 -22.3615641 42.12052137 -16 40 C-16 38.35 -16 36.7 -16 35 C-18.7019128 33.53964982 -21.10342359 32.6412017 -24.1171875 32.0703125 C-25.27541016 31.83634766 -25.27541016 31.83634766 -26.45703125 31.59765625 C-28.06002593 31.28430834 -29.66420267 30.97694403 -31.26953125 30.67578125 C-37.3308227 29.435284 -42.02649177 27.6313443 -45.875 22.5 C-47.56605374 17.23894392 -47.98132483 12.45817166 -47 7 C-44.20725098 1.62330562 -39.47000825 -2.19884361 -33.85546875 -4.3828125 C-22.47663859 -6.84225869 -10.21185054 -5.6165178 0 0 Z " fill="#031D4B" transform="translate(238,539)"/>
<path d="M0 0 C3 1.875 3 1.875 5 5 C5.94758149 9.96432072 5.6428425 14.44734535 3.25 18.9375 C-0.20761559 23.643699 -0.20761559 23.643699 -3 25 C-6.75 25.1875 -6.75 25.1875 -10 25 C-11.45606519 20.47907032 -10.27032841 17.48351204 -9 13 C-14.24179343 15.10425952 -16.74329403 17.82398265 -19.5625 22.5625 C-19.94744629 23.18874268 -20.33239258 23.81498535 -20.72900391 24.46020508 C-27.26770828 35.23072803 -31.36387409 45.45636802 -33 58 C-34.66561399 59.66561399 -36.65962705 59.17115945 -38.9375 59.1875 C-39.83339844 59.20167969 -40.72929688 59.21585938 -41.65234375 59.23046875 C-44 59 -44 59 -46 57 C-46.78343106 47.05645191 -42.65606245 36.45793457 -40 27 C-41.65 27 -43.3 27 -45 27 C-44.67 26.34 -44.34 25.68 -44 25 C-43.34 25 -42.68 25 -42 25 C-41.8453125 24.1028125 -41.8453125 24.1028125 -41.6875 23.1875 C-41 21 -41 21 -39.55859375 19.87109375 C-37.13459812 16.96108396 -36.93782591 13.51418115 -36.375 9.875 C-35.10472973 2.10472973 -35.10472973 2.10472973 -34 1 C-32.35769636 0.8754514 -30.70947724 0.82431476 -29.0625 0.8125 C-28.16660156 0.79832031 -27.27070312 0.78414062 -26.34765625 0.76953125 C-24 1 -24 1 -22 3 C-21.953125 5.13671875 -21.953125 5.13671875 -22.25 7.6875 C-22.33765625 8.51636719 -22.4253125 9.34523438 -22.515625 10.19921875 C-23.09540926 13.55168093 -24.02046992 16.74426682 -25 20 C-24.25556641 18.69675781 -24.25556641 18.69675781 -23.49609375 17.3671875 C-12.1989935 -1.95930297 -12.1989935 -1.95930297 0 0 Z " fill="#C13AC4" transform="translate(771,534)"/>
<path d="M0 0 C3.01922125 1.99140125 4.66162347 3.43871881 5.4453125 7.0546875 C5.74239232 12.77842544 4.25749278 17.31471006 1 22 C-1.61357426 24.68058898 -2.979583 25.85761623 -6.6875 26.375 C-9 26 -9 26 -11 24 C-10.6875 21.25 -10.6875 21.25 -10 18 C-9.7215625 16.329375 -9.7215625 16.329375 -9.4375 14.625 C-9.293125 13.75875 -9.14875 12.8925 -9 12 C-20.06106665 18.20498861 -27.09797925 31.50585531 -30.72460938 43.37060547 C-31.71834583 47.13839546 -32.547931 50.92517416 -33.30859375 54.74609375 C-34 58 -34 58 -35 59 C-36.64230364 59.1245486 -38.29052276 59.17568524 -39.9375 59.1875 C-40.83339844 59.20167969 -41.72929688 59.21585938 -42.65234375 59.23046875 C-45 59 -45 59 -47 57 C-46.5921337 50.93967087 -45.20780167 45.13437023 -43.78515625 39.2421875 C-43.46145302 37.8821611 -43.46145302 37.8821611 -43.13121033 36.49465942 C-42.67684672 34.58986168 -42.22039804 32.68556021 -41.76196289 30.78173828 C-41.06319161 27.87787412 -40.37191912 24.97229959 -39.68164062 22.06640625 C-39.2374215 20.20822753 -38.7927746 18.35015102 -38.34765625 16.4921875 C-38.14237808 15.62955292 -37.93709991 14.76691833 -37.7256012 13.87814331 C-36.66928238 9.50645513 -35.50494889 5.24486012 -34 1 C-32.35425434 0.97311849 -30.70838587 0.95365877 -29.0625 0.9375 C-28.14597656 0.92589844 -27.22945312 0.91429687 -26.28515625 0.90234375 C-24 1 -24 1 -23 2 C-22.68393845 7.22160015 -23.48106294 11.45348776 -25 16.4375 C-25.37125 17.67371094 -25.7425 18.90992188 -26.125 20.18359375 C-26.41375 21.11300781 -26.7025 22.04242187 -27 23 C-26.46890625 22.04738281 -25.9378125 21.09476563 -25.390625 20.11328125 C-24.67731769 18.84622221 -23.96376284 17.57930249 -23.25 16.3125 C-22.90195312 15.68666016 -22.55390625 15.06082031 -22.1953125 14.41601562 C-17.25005578 5.67023754 -11.0918915 -1.88352875 0 0 Z " fill="#7C3AAD" transform="translate(669,534)"/>
<path d="M0 0 C3.45312332 2.94531107 5.86771644 5.31798522 6.65625 9.8984375 C6.59171869 16.69035798 6.53463731 21.47451799 2.125 26.8125 C-2.57161775 30.12148069 -6.32199067 30.34135803 -11.875 29.8125 C-16.5781093 27.78161189 -19.59289119 24.37671761 -21.875 19.8125 C-23.07779616 7.37215111 -23.07779616 7.37215111 -19.625 3.125 C-13.78570187 -1.78531888 -7.19601629 -2.9722676 0 0 Z " fill="#010103" transform="translate(425.875,550.1875)"/>
<path d="M0 0 C0.33 0.66 0.66 1.32 1 2 C0.10101672 4.14639517 -0.90923343 6.24645859 -1.96484375 8.3203125 C-2.43308311 9.24830154 -2.43308311 9.24830154 -2.91078186 10.19503784 C-3.9122629 12.1755597 -4.92471079 14.15024082 -5.9375 16.125 C-6.61726468 17.46447444 -7.29631065 18.80431387 -7.97460938 20.14453125 C-9.64141213 23.43396791 -11.31809708 26.7182536 -13 30 C-7.555 28.515 -7.555 28.515 -2 27 C-4 32 -4 32 -7 36 C-3.7 35.34 -0.4 34.68 3 34 C-0.98685612 41.56127885 -5.59688387 48.65712096 -10.26953125 55.8046875 C-13.13681323 60.19157923 -15.91156068 64.63148238 -18.66015625 69.09375 C-20 71 -20 71 -22 72 C-20.00393688 65.19734284 -17.19371895 59.15489119 -13.8125 52.9375 C-13.34908203 52.07189453 -12.88566406 51.20628906 -12.40820312 50.31445312 C-11.27840098 48.20626562 -10.14008966 46.10264191 -9 44 C-12.63 44.99 -16.26 45.98 -20 47 C-18.02 43.7 -16.04 40.4 -14 37 C-17.63 37.99 -21.26 38.98 -25 40 C-23.98653068 35.94612273 -22.70822057 33.72920343 -20.4296875 30.2734375 C-20.0703714 29.72571686 -19.7110553 29.17799622 -19.34085083 28.61367798 C-18.19082175 26.86392544 -17.03288862 25.11955863 -15.875 23.375 C-15.11930564 22.22557981 -14.36409275 21.07584292 -13.609375 19.92578125 C-9.18608257 13.20332754 -4.65863344 6.5616395 0 0 Z " fill="#543A9A" transform="translate(484,340)"/>
<path d="M0 0 C3.01922125 1.99140125 4.66162347 3.43871881 5.4453125 7.0546875 C5.74239232 12.77842544 4.25749278 17.31471006 1 22 C-1.61357426 24.68058898 -2.979583 25.85761623 -6.6875 26.375 C-9 26 -9 26 -11 24 C-10.6875 21.25 -10.6875 21.25 -10 18 C-9.814375 16.88625 -9.62875 15.7725 -9.4375 14.625 C-9.293125 13.75875 -9.14875 12.8925 -9 12 C-9.9075 12.639375 -10.815 13.27875 -11.75 13.9375 C-14.39221381 15.61428953 -15.9898499 16.53689998 -19 17 C-19.7109375 15.25390625 -19.7109375 15.25390625 -20 13 C-18.6015625 10.96484375 -18.6015625 10.96484375 -16.625 8.9375 C-14.26833071 6.49163406 -13.08915266 5.26745798 -12 2 C-8.03864913 -0.21369608 -4.47127751 -0.55890969 0 0 Z " fill="#8D38AE" transform="translate(669,534)"/>
<path d="M0 0 C0.80244141 0.00966797 1.60488281 0.01933594 2.43164062 0.02929688 C3.26501953 0.05443359 4.09839844 0.07957031 4.95703125 0.10546875 C6.22450195 0.12577148 6.22450195 0.12577148 7.51757812 0.14648438 C9.60183509 0.18181076 11.68576402 0.23561736 13.76953125 0.29296875 C13.58847378 8.40937286 13.58847378 8.40937286 10.39453125 11.85546875 C5.5513812 13.77602825 0.92169778 14.19075601 -4.23046875 13.29296875 C-6.0390625 11.984375 -6.0390625 11.984375 -7.23046875 10.29296875 C-7.88565869 4.17786266 -7.88565869 4.17786266 -5.97143555 1.5925293 C-3.80538726 -0.02433721 -2.6794797 -0.05701021 0 0 Z " fill="#010104" transform="translate(341.23046875,568.70703125)"/>
<path d="M0 0 C2.5625 1.5625 2.5625 1.5625 4 4 C4 7.87593014 3.57091049 10.16559236 1.375 13.375 C-1.81037178 15.5544649 -4.15956603 15.93142082 -8 16 C-10.4375 15.125 -10.4375 15.125 -12 13 C-12.78719554 8.70694393 -12.72368403 5.23629355 -10.5 1.4375 C-6.95725741 -0.59957699 -3.98953575 -0.7913803 0 0 Z " fill="#6C39A6" transform="translate(577,511)"/>
<path d="M0 0 C0.33 0.66 0.66 1.32 1 2 C0.10101672 4.14639517 -0.90923343 6.24645859 -1.96484375 8.3203125 C-2.43308311 9.24830154 -2.43308311 9.24830154 -2.91078186 10.19503784 C-3.9122629 12.1755597 -4.92471079 14.15024082 -5.9375 16.125 C-6.61726468 17.46447444 -7.29631065 18.80431387 -7.97460938 20.14453125 C-9.64141213 23.43396791 -11.31809708 26.7182536 -13 30 C-11.35 30 -9.7 30 -8 30 C-11.95083073 36.18390896 -18.0766112 38.42650255 -25 40 C-24.3528131 36.16139411 -22.55530968 33.49728919 -20.4296875 30.2734375 C-20.0703714 29.72571686 -19.7110553 29.17799622 -19.34085083 28.61367798 C-18.19082175 26.86392544 -17.03288862 25.11955863 -15.875 23.375 C-15.11930564 22.22557981 -14.36409275 21.07584292 -13.609375 19.92578125 C-9.18608257 13.20332754 -4.65863344 6.5616395 0 0 Z " fill="#33429C" transform="translate(484,340)"/>
<path d="M0 0 C0.33 0 0.66 0 1 0 C1 23.1 1 46.2 1 70 C6.28 70.66 11.56 71.32 17 72 C17 62.76 17 53.52 17 44 C17.66 44.33 18.32 44.66 19 45 C18.67 54.24 18.34 63.48 18 73 C12.06 73 6.12 73 0 73 C0 48.91 0 24.82 0 0 Z " fill="#112250" transform="translate(386,542)"/>
<path d="M0 0 C-1.2491742 3.45925163 -2.67527795 6.14693203 -5 9 C-4.67 9.66 -4.34 10.32 -4 11 C-5.6396875 11.61875 -5.6396875 11.61875 -7.3125 12.25 C-10.58541218 13.6367158 -11.99291736 15.03716372 -14 18 C-15.31252882 18.70674629 -16.64480262 19.37898287 -18 20 C-8.79646018 2.75870206 -8.79646018 2.75870206 -4 1 C-2 0 -2 0 0 0 Z " fill="#413790" transform="translate(482,367)"/>
<path d="M0 0 C0.33 0.66 0.66 1.32 1 2 C0.10375977 4.24658203 0.10375977 4.24658203 -1.30859375 7.0078125 C-1.80810547 7.99394531 -2.30761719 8.98007812 -2.82226562 9.99609375 C-3.35529297 11.02863281 -3.88832031 12.06117188 -4.4375 13.125 C-4.96666016 14.16527344 -5.49582031 15.20554687 -6.04101562 16.27734375 C-7.3536281 18.85526735 -8.67354287 21.4291802 -10 24 C-12 24 -14 24 -16 24 C-13.52279812 20.18621996 -11.04291154 16.37419317 -8.5625 12.5625 C-7.85544922 11.47388672 -7.14839844 10.38527344 -6.41992188 9.26367188 C-5.74638672 8.22919922 -5.07285156 7.19472656 -4.37890625 6.12890625 C-3.7557251 5.17056885 -3.13254395 4.21223145 -2.49047852 3.22485352 C-1 1 -1 1 0 0 Z " fill="#2D3F98" transform="translate(484,340)"/>
<path d="M0 0 C0 4.14816462 -1.93586028 5.3767414 -4.6875 8.28125 C-6.3034568 10.03695369 -6.3034568 10.03695369 -6 13 C-5.34 13.66 -4.68 14.32 -4 15 C-5.98 17.97 -7.96 20.94 -10 24 C-10.33 23.01 -10.66 22.02 -11 21 C-11.33 20.67 -11.66 20.34 -12 20 C-12.33 19.34 -12.66 18.68 -13 18 C-11.70703125 15.35546875 -11.70703125 15.35546875 -9.8125 12.1875 C-8.89404297 10.63095703 -8.89404297 10.63095703 -7.95703125 9.04296875 C-3.15610218 1.57805109 -3.15610218 1.57805109 0 0 Z " fill="#8035A5" transform="translate(656,537)"/>
<path d="M0 0 C17.82 0 35.64 0 54 0 C54 0.66 54 1.32 54 2 C53.35742249 1.99333817 52.71484497 1.98667633 52.05279541 1.97981262 C45.36955769 1.91348224 38.68641337 1.86820885 32.00292969 1.83520508 C29.50809939 1.82011145 27.01329565 1.79963452 24.51855469 1.77368164 C20.93417814 1.7373246 17.35015218 1.72027922 13.765625 1.70703125 C12.64883362 1.69154739 11.53204224 1.67606354 10.38140869 1.66011047 C9.34063171 1.65988388 8.29985474 1.65965729 7.22753906 1.65942383 C5.85520111 1.64943108 5.85520111 1.64943108 4.45513916 1.63923645 C1.55259435 2.06574277 0.17339401 3.079323 -2 5 C-1.34 3.35 -0.68 1.7 0 0 Z " fill="#144285" transform="translate(401,337)"/>
<path d="M0 0 C0.99 0 1.98 0 3 0 C2.42871757 4.28853112 0.90905605 7.13991377 -1.4375 10.75 C-2.05496094 11.71421875 -2.67242187 12.6784375 -3.30859375 13.671875 C-5 16 -5 16 -7 17 C-5.1668733 11.00067626 -2.92678249 5.55079437 0 0 Z " fill="#522F84" transform="translate(469,395)"/>
<path d="M0 0 C0.33 0.66 0.66 1.32 1 2 C-0.07518118 4.44332726 -1.19808566 6.76754523 -2.4375 9.125 C-2.77587891 9.78371094 -3.11425781 10.44242187 -3.46289062 11.12109375 C-4.30149926 12.75106547 -5.14984811 14.37601909 -6 16 C-6.99 15.67 -7.98 15.34 -9 15 C-7.61219205 11.10993227 -5.7847773 8.03441292 -3.375 4.6875 C-2.74335938 3.80449219 -2.11171875 2.92148437 -1.4609375 2.01171875 C-0.97882813 1.34785156 -0.49671875 0.68398438 0 0 Z " fill="#2D3B89" transform="translate(484,340)"/>
<path d="M0 0 C-2.14266817 2.14266817 -4.1428555 2.99666524 -6.9140625 4.13671875 C-9.27408664 5.11343286 -11.60519433 6.14642349 -13.9375 7.1875 C-14.70964844 7.53167969 -15.48179687 7.87585938 -16.27734375 8.23046875 C-16.84582031 8.48441406 -17.41429687 8.73835938 -18 9 C-18.33 8.34 -18.66 7.68 -19 7 C-16.40163864 5.63354299 -13.79734444 4.28169331 -11.1875 2.9375 C-10.44951172 2.54755859 -9.71152344 2.15761719 -8.95117188 1.75585938 C-8.23896484 1.39169922 -7.52675781 1.02753906 -6.79296875 0.65234375 C-6.1383667 0.31195068 -5.48376465 -0.02844238 -4.80932617 -0.37915039 C-3 -1 -3 -1 0 0 Z " fill="#03589F" transform="translate(440,279)"/>
<path d="M0 0 C0.99 0.66 1.98 1.32 3 2 C1.02 4.64 -0.96 7.28 -3 10 C-6 6 -6 6 -6 3 C-5.34 2.34 -4.68 1.68 -4 1 C-3.67 1.66 -3.34 2.32 -3 3 C-2.01 2.67 -1.02 2.34 0 2 C0 1.34 0 0.68 0 0 Z " fill="#64349C" transform="translate(605,548)"/>
<path d="M0 0 C0.33 1.32 0.66 2.64 1 4 C1.66 4 2.32 4 3 4 C1.8141763 7.37503669 0.72426311 9.64722731 -2 12 C-2 11.34 -2 10.68 -2 10 C-2.66 10 -3.32 10 -4 10 C-2.8905928 6.51329166 -1.73662334 3.22515763 0 0 Z " fill="#5A3592" transform="translate(474,385)"/>
<path d="M0 0 C-3.3 3.3 -6.6 6.6 -10 10 C-10.33 9.34 -10.66 8.68 -11 8 C-4.35887097 -2.17943548 -4.35887097 -2.17943548 0 0 Z " fill="#0B225A" transform="translate(329,562)"/>
<path d="M0 0 C2.31 0 4.62 0 7 0 C6.67 1.65 6.34 3.3 6 5 C4.35 5 2.7 5 1 5 C0.67 3.35 0.34 1.7 0 0 Z " fill="#A63EB9" transform="translate(703,535)"/>
<path d="M0 0 C0.33 0.99 0.66 1.98 1 3 C-0.75 6.1875 -0.75 6.1875 -3 9 C-3.99 9 -4.98 9 -6 9 C-6.375 6.75 -6.375 6.75 -6 4 C-3 1.6875 -3 1.6875 0 0 Z " fill="#613DA5" transform="translate(481,380)"/>
<path d="M0 0 C0 3.57191704 -0.58809508 3.97922672 -2.9375 6.5 C-5.07472325 8.80395698 -5.98252115 9.94756345 -7 13 C-7.99 13.33 -8.98 13.66 -10 14 C-8.43006215 8.97619887 -5.39884258 4.9530017 -2 1 C-1.34 0.67 -0.68 0.34 0 0 Z " fill="#7A2E9A" transform="translate(656,537)"/>
<path d="M0 0 C0.33 0.99 0.66 1.98 1 3 C1.66 3.33 2.32 3.66 3 4 C1.02 7.63 -0.96 11.26 -3 15 C-4.28497537 11.14507389 -3.4052209 9.59653164 -2.0625 5.8125 C-1.68222656 4.72582031 -1.30195312 3.63914062 -0.91015625 2.51953125 C-0.60980469 1.68808594 -0.30945313 0.85664062 0 0 Z " fill="#2E1638" transform="translate(748,543)"/>
<path d="M0 0 C-0.33 2.64 -0.66 5.28 -1 8 C-1.66 6.68 -2.32 5.36 -3 4 C-4.65 4.33 -6.3 4.66 -8 5 C-3.375 0 -3.375 0 0 0 Z " fill="#170D1D" transform="translate(762,547)"/>
<path d="M0 0 C0.66 0.33 1.32 0.66 2 1 C-3.445 5.455 -3.445 5.455 -9 10 C-9 9.01 -9 8.02 -9 7 C-7.03125 5.17578125 -7.03125 5.17578125 -4.5 3.3125 C-3.6646875 2.68988281 -2.829375 2.06726563 -1.96875 1.42578125 C-1.3190625 0.95527344 -0.669375 0.48476563 0 0 Z " fill="#035AA1" transform="translate(421,299)"/>
<path d="M0 0 C0.99 0.66 1.98 1.32 3 2 C1.35 4.97 -0.3 7.94 -2 11 C-3 9 -3 9 -2.44140625 6.8359375 C-2.15136719 6.02382813 -1.86132812 5.21171875 -1.5625 4.375 C-1.27503906 3.55773437 -0.98757813 2.74046875 -0.69140625 1.8984375 C-0.46324219 1.27195312 -0.23507812 0.64546875 0 0 Z " fill="#1F122A" transform="translate(644,547)"/>
<path d="M0 0 C3 3.75 3 3.75 3 6 C2.01 5.67 1.02 5.34 0 5 C-2.16715557 5.87483915 -2.16715557 5.87483915 -4 7 C-2.92598892 4.08482708 -2.22189824 2.22189824 0 0 Z " fill="#56399C" transform="translate(553,342)"/>
<path d="M0 0 C1.1171875 1.765625 1.1171875 1.765625 2 4 C1.06434658 6.64564072 -0.45014515 8.62963376 -2 11 C-3 9 -3 9 -2.44140625 6.8359375 C-2.15136719 6.02382813 -1.86132812 5.21171875 -1.5625 4.375 C-1.27503906 3.55773437 -0.98757813 2.74046875 -0.69140625 1.8984375 C-0.46324219 1.27195312 -0.23507812 0.64546875 0 0 Z " fill="#241437" transform="translate(598,547)"/>
<path d="M0 0 C2.91517292 1.07401108 4.77810176 1.77810176 7 4 C6.01 4.495 6.01 4.495 5 5 C4.01 6.485 4.01 6.485 3 8 C2.01 5.36 1.02 2.72 0 0 Z " fill="#4D3197" transform="translate(452,414)"/>
<path d="M0 0 C1.65 0 3.3 0 5 0 C5 0.66 5 1.32 5 2 C4.34 2.66 3.68 3.32 3 4 C3.32041397 6.60280568 3.32041397 6.60280568 4 9 C1.49701566 6.06171403 0.53069061 3.82097239 0 0 Z " fill="#0F4B91" transform="translate(490,293)"/>
<path d="M0 0 C1.1875 1.625 1.1875 1.625 2 4 C0.625 7.25 0.625 7.25 -1 10 C-2.46726798 6.18510326 -1.43336419 3.70988378 0 0 Z " fill="#1A1538" transform="translate(475,551)"/>
<path d="M0 0 C0.66 0.99 1.32 1.98 2 3 C1.1025444 6.06630664 0.26961192 7.73038808 -2 10 C-1.54177532 6.53058454 -1.10868317 3.32604951 0 0 Z " fill="#1A152E" transform="translate(508,551)"/>
</svg>
